<?xml version="1.0" encoding="UTF-8" standalone="no"?>
<!DOCTYPE svg PUBLIC "-//W3C//DTD SVG 1.1//EN"
 "http://www.w3.org/Graphics/SVG/1.1/DTD/svg11.dtd">
<!-- Generated by graphviz version 2.44.1 (20200629.0846)
 -->
<!-- Title: g Pages: 1 -->
<svg width="1230pt" height="1043pt"
 viewBox="0.00 0.00 1230.00 1043.20" xmlns="http://www.w3.org/2000/svg" xmlns:xlink="http://www.w3.org/1999/xlink">
<g id="graph0" class="graph" transform="scale(1 1) rotate(0) translate(4 1039.2)">
<title>g</title>
<polygon fill="white" stroke="transparent" points="-4,4 -4,-1039.2 1226,-1039.2 1226,4 -4,4"/>
<g id="clust1" class="cluster">
<title>cluster_1322970774</title>
<polygon fill="#ececec" stroke="black" points="8,-8 8,-1027.2 1214,-1027.2 1214,-8 8,-8"/>
<text text-anchor="middle" x="39.71" y="-1010.6" font-family="Times New Roman,serif" font-size="14.00">example</text>
</g>
<g id="clust2" class="cluster">
<title>cluster_312184102</title>
<polygon fill="#d8d8d8" stroke="black" points="16,-16 16,-994.4 1206,-994.4 1206,-16 16,-16"/>
<text text-anchor="middle" x="63.26" y="-977.8" font-family="Times New Roman,serif" font-size="14.00">college_space</text>
</g>
<!-- Department_Values1773789759 -->
<g id="node1" class="node">
<title>Department_Values1773789759</title>
<polygon fill="#ffffff" stroke="transparent" points="572,-98 432,-98 432,-24 572,-24 572,-98"/>
<text text-anchor="start" x="436.69" y="-80.4" font-family="Times New Roman,serif" font-size="14.00">(C)Department_Values</text>
<text text-anchor="start" x="437" y="-56.4" font-family="Times New Roman,serif" font-size="14.00">&#45; &#160;&#160;id: int [1]</text>
<text text-anchor="start" x="437" y="-32.4" font-family="Times New Roman,serif" font-size="14.00">&#45; &#160;&#160;name: String [0..1]</text>
<polygon fill="black" stroke="black" points="432,-73 432,-73 572,-73 572,-73 432,-73"/>
<polygon fill="none" stroke="black" points="432,-24 432,-98 572,-98 572,-24 432,-24"/>
</g>
<!-- Fragment_Add_Subjects1773789759 -->
<g id="node2" class="node">
<title>Fragment_Add_Subjects1773789759</title>
<polygon fill="#ffffff" stroke="transparent" points="1197.5,-961.6 626.5,-961.6 626.5,-167.6 1197.5,-167.6 1197.5,-961.6"/>
<text text-anchor="start" x="632" y="-944" font-family="Times New Roman,serif" font-size="14.00">(C)Fragment_Add_Subjects</text>
<text text-anchor="start" x="632" y="-920" font-family="Times New Roman,serif" font-size="14.00">&#45; &#160;&#160;Request_URL: String [0..1]</text>
<text text-anchor="start" x="632" y="-896" font-family="Times New Roman,serif" font-size="14.00">&#45; &#160;&#160;addSubjectsDataBtn: Button [0..1]</text>
<text text-anchor="start" x="632" y="-872" font-family="Times New Roman,serif" font-size="14.00">&#45; &#160;&#160;commonAlertDialog: CommonAlertDialog [0..1]</text>
<text text-anchor="start" x="632" y="-848" font-family="Times New Roman,serif" font-size="14.00">&#45; &#160;&#160;context: Context [0..1]</text>
<text text-anchor="start" x="632" y="-824" font-family="Times New Roman,serif" font-size="14.00">&#45; &#160;&#160;custom_alert_dialog_layout: View [0..1]</text>
<text text-anchor="start" x="632" y="-800" font-family="Times New Roman,serif" font-size="14.00">&#45; &#160;&#160;departmentSpinner: Spinner [0..1]</text>
<text text-anchor="start" x="632" y="-776" font-family="Times New Roman,serif" font-size="14.00">&#45; &#160;&#160;department_valuesList: List&lt;Department_Values&gt; [0..*]</text>
<text text-anchor="start" x="632" y="-752" font-family="Times New Roman,serif" font-size="14.00">&#45; &#160;&#160;saveAddAnotherBtn: Button [0..1]</text>
<text text-anchor="start" x="632" y="-728" font-family="Times New Roman,serif" font-size="14.00">&#45; &#160;&#160;selectDeptSemBtn: Button [0..1]</text>
<text text-anchor="start" x="632" y="-704" font-family="Times New Roman,serif" font-size="14.00"># &#160;&#160;selectSemNumTVCustomeDia: TextView [0..1]</text>
<text text-anchor="start" x="632" y="-680" font-family="Times New Roman,serif" font-size="14.00">&#45; &#160;&#160;selectedDataLinearLayout: LinearLayout [0..1]</text>
<text text-anchor="start" x="632" y="-656" font-family="Times New Roman,serif" font-size="14.00">&#45; &#160;&#160;selectedDepNameTV: TextView [0..1]</text>
<text text-anchor="start" x="632" y="-632" font-family="Times New Roman,serif" font-size="14.00">&#45; &#160;&#160;selectedDeptID: int [1]</text>
<text text-anchor="start" x="632" y="-608" font-family="Times New Roman,serif" font-size="14.00">&#45; &#160;&#160;selectedSem: int [1]</text>
<text text-anchor="start" x="632" y="-584" font-family="Times New Roman,serif" font-size="14.00">&#45; &#160;&#160;selectedSemNameTV: TextView [0..1]</text>
<text text-anchor="start" x="632" y="-560" font-family="Times New Roman,serif" font-size="14.00">&#45; &#160;&#160;semList: List&lt;String&gt; [0..*]</text>
<text text-anchor="start" x="632" y="-536" font-family="Times New Roman,serif" font-size="14.00">&#45; &#160;&#160;semNumSpinner: Spinner [0..1]</text>
<text text-anchor="start" x="632" y="-512" font-family="Times New Roman,serif" font-size="14.00">&#45; &#160;&#160;srno: int [1]</text>
<text text-anchor="start" x="632" y="-488" font-family="Times New Roman,serif" font-size="14.00">&#45; &#160;&#160;subjectAbbrET: EditText [0..1]</text>
<text text-anchor="start" x="632" y="-464" font-family="Times New Roman,serif" font-size="14.00">&#45; &#160;&#160;subjectDetailsLinearLayout: LinearLayout [0..1]</text>
<text text-anchor="start" x="632" y="-440" font-family="Times New Roman,serif" font-size="14.00">&#45; &#160;&#160;subjectNameET: EditText [0..1]</text>
<text text-anchor="start" x="632" y="-416" font-family="Times New Roman,serif" font-size="14.00">&#45; &#160;&#160;subjectTable: TableLayout [0..1]</text>
<text text-anchor="start" x="632" y="-392" font-family="Times New Roman,serif" font-size="14.00">&#45; &#160;&#160;subject_table_values_list: List&lt;SubjestTableValues&gt; [0..*]</text>
<text text-anchor="start" x="632" y="-368" font-family="Times New Roman,serif" font-size="14.00">&#45; &#160;&#160;teacher_values_list: List&lt;Teacher_Values&gt; [0..*]</text>
<text text-anchor="start" x="632" y="-344" font-family="Times New Roman,serif" font-size="14.00">&#45; &#160;&#160;teachersSpinner: Spinner [0..1]</text>
<text text-anchor="start" x="632" y="-320" font-family="Times New Roman,serif" font-size="14.00">&#45; &#160;&#160;view: View [0..1]</text>
<text text-anchor="start" x="632" y="-296" font-family="Times New Roman,serif" font-size="14.00">&#45; addSubjectTableRow(subjestTableValues: SubjestTableValues)</text>
<text text-anchor="start" x="632" y="-272" font-family="Times New Roman,serif" font-size="14.00">&#45; getMaxSemCountForDept(course_id: int)</text>
<text text-anchor="start" x="632" y="-248" font-family="Times New Roman,serif" font-size="14.00">&#45; makeHideOnNotSelectedDeptSem()</text>
<text text-anchor="start" x="631.58" y="-224" font-family="Times New Roman,serif" font-size="14.00">+ onCreateView(inflater: LayoutInflater, container: ViewGroup, savedInstanceState: Bundle): View</text>
<text text-anchor="start" x="632" y="-200" font-family="Times New Roman,serif" font-size="14.00">&#45; onSelectingDeptSem()</text>
<text text-anchor="start" x="632" y="-176" font-family="Times New Roman,serif" font-size="14.00">&#45; sendData(custome_alert_context: Context)</text>
<polygon fill="black" stroke="black" points="627,-936.6 627,-936.6 1198,-936.6 1198,-936.6 627,-936.6"/>
<polygon fill="black" stroke="black" points="627,-312.6 627,-312.6 1198,-312.6 1198,-312.6 627,-312.6"/>
<polygon fill="none" stroke="black" points="626.5,-167.6 626.5,-961.6 1197.5,-961.6 1197.5,-167.6 626.5,-167.6"/>
</g>
<!-- Fragment_Add_Subjects1773789759&#45;&gt;Department_Values1773789759 -->
<g id="edge1" class="edge">
<title>Fragment_Add_Subjects1773789759&#45;&gt;Department_Values1773789759</title>
<path fill="none" stroke="black" d="M644.64,-167.35C623.44,-135.92 610,-116 610,-116 610,-116 597.79,-109.9 581.59,-101.79"/>
<polygon fill="black" stroke="black" points="582.74,-98.46 572.23,-97.11 579.61,-104.72 582.74,-98.46"/>
<text text-anchor="middle" x="693.76" y="-137" font-family="Times New Roman,serif" font-size="14.00">department_valuesList</text>
<text text-anchor="middle" x="693.76" y="-120.2" font-family="Times New Roman,serif" font-size="14.00">[0..*]</text>
</g>
<!-- Fragment_Semester_Details1773789759 -->
<g id="node3" class="node">
<title>Fragment_Semester_Details1773789759</title>
<polygon fill="#ffffff" stroke="transparent" points="608,-757.6 24,-757.6 24,-371.6 608,-371.6 608,-757.6"/>
<text text-anchor="start" x="29" y="-740" font-family="Times New Roman,serif" font-size="14.00">(C)Fragment_Semester_Details</text>
<text text-anchor="start" x="29" y="-716" font-family="Times New Roman,serif" font-size="14.00">&#45; &#160;&#160;Request_URL: String [0..1]</text>
<text text-anchor="start" x="29" y="-692" font-family="Times New Roman,serif" font-size="14.00">&#45; &#160;&#160;commonAlertDialog: CommonAlertDialog [0..1]</text>
<text text-anchor="start" x="29" y="-668" font-family="Times New Roman,serif" font-size="14.00">&#45; &#160;&#160;createSemBtn: Button [0..1]</text>
<text text-anchor="start" x="29" y="-644" font-family="Times New Roman,serif" font-size="14.00"># &#160;&#160;datePickerDialog: DatePickerDialog [0..1]</text>
<text text-anchor="start" x="29" y="-620" font-family="Times New Roman,serif" font-size="14.00">&#45; &#160;&#160;createSemBtn: Button [0..*]</text>
<text text-anchor="start" x="29" y="-596" font-family="Times New Roman,serif" font-size="14.00">&#45; &#160;&#160;endDateTV: TextView [0..1]</text>
<text text-anchor="start" x="29" y="-572" font-family="Times New Roman,serif" font-size="14.00">&#45; &#160;&#160;selectDepartmentSpinner: Spinner [0..1]</text>
<text text-anchor="start" x="29" y="-548" font-family="Times New Roman,serif" font-size="14.00">&#45; &#160;&#160;semNoET: EditText [0..1]</text>
<text text-anchor="start" x="29" y="-524" font-family="Times New Roman,serif" font-size="14.00">&#45; &#160;&#160;createSemBtn: Button [0..1]</text>
<text text-anchor="start" x="29" y="-500" font-family="Times New Roman,serif" font-size="14.00">&#45; &#160;&#160;view: View [0..1]</text>
<text text-anchor="start" x="29" y="-476" font-family="Times New Roman,serif" font-size="14.00">&#45; clearAllFields()</text>
<text text-anchor="start" x="28.86" y="-452" font-family="Times New Roman,serif" font-size="14.00">&#45; insertSemesterData(sem_num: String, sem_start_date: String, sem_end_date: String, dept_id: String)</text>
<text text-anchor="start" x="29" y="-428" font-family="Times New Roman,serif" font-size="14.00">&#45; onCreateSemBtn()</text>
<text text-anchor="start" x="29" y="-404" font-family="Times New Roman,serif" font-size="14.00">+ onCreateView(inflater: LayoutInflater, container: ViewGroup, savedInstanceState: Bundle): View</text>
<text text-anchor="start" x="29" y="-380" font-family="Times New Roman,serif" font-size="14.00">&#45; showDatePickerDialog(textView: TextView)</text>
<polygon fill="black" stroke="black" points="24,-732.6 24,-732.6 608,-732.6 608,-732.6 24,-732.6"/>
<polygon fill="black" stroke="black" points="24,-492.6 24,-492.6 608,-492.6 608,-492.6 24,-492.6"/>
    <polygon fill="none" stroke="black" points="24,-371.6 24,-757.6 608,-757.6 608,-371.6 24,-371.6"/>
</g>
<!-- Fragment_Semester_Details1773789759&#45;&gt;Department_Values1773789759 -->
<g id="edge2" class="edge">
<title>Fragment_Semester_Details1773789759&#45;&gt;Department_Values1773789759</title>
<path fill="none" stroke="black" d="M387.25,-371.46C422.78,-275.63 462.81,-167.68 484.95,-107.97"/>
<polygon fill="black" stroke="black" points="488.29,-109.05 488.48,-98.46 481.72,-106.62 488.29,-109.05"/>
<text text-anchor="middle" x="541.76" y="-137" font-family="Times New Roman,serif" font-size="14.00">department_valuesList</text>
<text text-anchor="middle" x="541.76" y="-120.2" font-family="Times New Roman,serif" font-size="14.00">[0..*]</text>
</g>
</g>
</svg>
